<mxfile host="65bd71144e">
    <diagram id="zksH2bRSe_2fzKz3ZpXJ" name="Page-1">
        <mxGraphModel dx="2204" dy="1482" grid="1" gridSize="12" guides="1" tooltips="1" connect="1" arrows="1" fold="1" page="0" pageScale="1" pageWidth="850" pageHeight="1100" background="none" math="0" shadow="0">
            <root>
                <mxCell id="0"/>
                <mxCell id="1" parent="0"/>
                <mxCell id="2" value="" style="ellipse;whiteSpace=wrap;html=1;rounded=0;strokeColor=default;gradientColor=#000000;fillColor=#66FFB3;gradientDirection=radial;strokeWidth=1;perimeterSpacing=11;expand=1;recursiveResize=1;" parent="1" vertex="1">
                    <mxGeometry x="-156" y="-156" width="960" height="612" as="geometry"/>
                </mxCell>
                <mxCell id="12" style="edgeStyle=none;html=1;entryX=0.5;entryY=0.025;entryDx=0;entryDy=0;entryPerimeter=0;endSize=6;targetPerimeterSpacing=0;fillColor=#fa6800;strokeColor=#C73500;startSize=100;startArrow=none;" edge="1" parent="1" target="2">
                    <mxGeometry relative="1" as="geometry">
                        <mxPoint x="324" y="-84" as="sourcePoint"/>
                        <mxPoint x="324" y="-60" as="targetPoint"/>
                    </mxGeometry>
                </mxCell>
                <mxCell id="9" value="&lt;h1&gt;&lt;font color=&quot;#ffffff&quot; face=&quot;Georgia&quot; style=&quot;font-size: 36px;&quot;&gt;i am a container this is a container&lt;/font&gt;&lt;/h1&gt;" style="swimlane;whiteSpace=wrap;html=1;dashed=1;dashPattern=8 8;direction=east;startSize=240;rounded=0;" parent="1" vertex="1" collapsed="1">
                    <mxGeometry x="-20" y="38" width="688" height="224" as="geometry">
                        <mxRectangle x="256" y="400" width="336" height="296" as="alternateBounds"/>
                    </mxGeometry>
                </mxCell>
                <mxCell id="14" value="" style="edgeStyle=none;html=1;entryX=0.5;entryY=0.025;entryDx=0;entryDy=0;entryPerimeter=0;endSize=6;fillColor=#fa6800;strokeColor=#C73500;startSize=100;sourcePerimeterSpacing=0;endArrow=none;" edge="1" parent="1" source="9">
                    <mxGeometry relative="1" as="geometry">
                        <mxPoint x="324" y="38" as="sourcePoint"/>
                        <mxPoint x="324" y="-80.09999999999991" as="targetPoint"/>
                    </mxGeometry>
                </mxCell>
            </root>
        </mxGraphModel>
    </diagram>
</mxfile>